<svg width="24" height="24" viewBox="0 0 24 24" fill="none" xmlns="http://www.w3.org/2000/svg">
<path d="M13.6668 3.11268L13.6667 3.1127L13.6705 3.11598L19.6668 8.37268C19.6674 8.37321 19.6679 8.37373 19.6685 8.37425C19.9313 8.60976 20.1413 8.89825 20.2847 9.22075C20.4283 9.54397 20.5017 9.89398 20.5001 10.2477V10.25V19C20.5001 19.663 20.2367 20.2989 19.7679 20.7678C19.299 21.2366 18.6631 21.5 18.0001 21.5H6.00009C5.33705 21.5 4.70117 21.2366 4.23233 20.7678C3.76349 20.2989 3.50009 19.663 3.50009 19V10.26H3.50011L3.50008 10.256C3.49726 9.90093 3.57012 9.5493 3.71381 9.22456C3.85718 8.90054 4.06779 8.6107 4.33166 8.37426L10.3297 3.11598L10.3297 3.11599L10.3334 3.11268C10.7918 2.70271 11.3852 2.47607 12.0001 2.47607C12.615 2.47607 13.2084 2.70271 13.6668 3.11268ZM14.0001 20.5H14.5001V20V15C14.5001 14.6022 14.3421 14.2206 14.0608 13.9393C13.7795 13.658 13.3979 13.5 13.0001 13.5H11.0001C10.6023 13.5 10.2207 13.658 9.93944 13.9393C9.65813 14.2206 9.50009 14.6022 9.50009 15V20V20.5H10.0001H14.0001ZM15.5001 20V20.5H16.0001H18.0001C18.3979 20.5 18.7794 20.342 19.0608 20.0607C19.3421 19.7794 19.5001 19.3978 19.5001 19V10.25V10.2494C19.4998 10.0364 19.4542 9.82591 19.3663 9.63193C19.2783 9.43796 19.1501 9.26493 18.9901 9.12436L18.9893 9.12371L12.9901 3.87437C12.99 3.87425 12.9898 3.87413 12.9897 3.87401C12.716 3.63375 12.3643 3.50126 12.0001 3.50126C11.6359 3.50126 11.2842 3.63375 11.0105 3.87401C11.0104 3.87413 11.0102 3.87425 11.0101 3.87437L5.01084 9.12371L5.0101 9.12437C4.85009 9.26493 4.72186 9.43796 4.63392 9.63193C4.54599 9.82591 4.50037 10.0364 4.50009 10.2494V10.25V19C4.50009 19.3978 4.65813 19.7794 4.93943 20.0607C5.22074 20.342 5.60227 20.5 6.00009 20.5H8.00009H8.50009V20V15C8.50009 14.337 8.76349 13.7011 9.23233 13.2322C9.70117 12.7634 10.3371 12.5 11.0001 12.5H13.0001C13.6631 12.5 14.299 12.7634 14.7679 13.2322C15.2367 13.7011 15.5001 14.337 15.5001 15V20Z" fill="black" stroke="black"/>
</svg>
